<svg width="100" height="100" viewBox="0 -1 100 100" xmlns="http://www.w3.org/2000/svg"><g fill="none" fill-rule="evenodd"><circle cx="50" cy="50" r="49" fill="#20C4CB"></circle><path d="M62.65 58.163c-1.986 2.176-4.772 3.278-6.078 3.278-1.509 0-2.334-.926-2.504-2.315a5.73 5.73 0 0 1 .056-1.6c.499-3.115 1.645-5.051 1.574-5.64-.021-.169-.116-.253-.241-.253-.965 0-4.352 3.494-4.866 5.81l-.4 1.852c-.262 1.305-1.542 2.146-2.421 2.146-.42 0-.74-.21-.796-.673a1.998 1.998 0 0 1 .05-.632l.188-.976c-1.826 1.365-3.796 2.287-4.718 2.287-1.258 0-1.968-.673-2.217-1.684-.831 1.095-1.932 1.684-3.106 1.684-1.498 0-2.94-.99-3.634-2.458-.987 1.109-2.158 2.193-3.556 3.09-2.062 1.305-4.364 2.357-7.088 2.357-2.516 0-4.651-1.347-5.832-2.441-1.752-1.642-2.679-4.084-2.951-6.315-.86-7.03 3.42-16.25 10.051-20.29 1.522-.927 3.226-1.39 4.776-1.39 3.186 0 5.564 2.28 5.897 5.003.3 2.455-.682 4.574-3.402 5.947-1.39.703-2.078.67-2.295.335-.145-.224-.063-.602.217-.836 2.558-2.138 2.607-3.892 2.305-6.366-.195-1.59-1.242-2.61-2.415-2.61-5.03 0-12.243 11.282-11.24 19.491.391 3.2 2.353 6.904 6.377 6.904 1.341 0 2.762-.379 4.026-1.01 2.207-1.128 3.454-2.02 4.708-3.48-.307-3.796 2.95-8.56 7.794-8.56 2.095 0 3.833.842 4.039 2.526.257 2.104-1.536 2.526-2.207 2.526-.587 0-1.53-.169-1.596-.716-.072-.59 1.269-.252 1.104-1.6-.103-.841-.977-1.136-1.816-1.136-3.018 0-4.683 4.21-4.364 6.82.144 1.179.75 2.357 1.84 2.357.88 0 2.15-1.263 2.636-3.115.307-1.263 1.504-2.105 2.384-2.105.461 0 .78.21.837.673.02.169.004.38-.049.632-.1.547-.52 2.368-.501 2.746.015.329.204.78.774.78.453 0 2.115-.898 3.655-2.28.484-2.501 1.081-5.591 1.127-5.835.188-1.013.551-2.056 2.605-2.056.42 0 .739.21.8.715.02.168.005.38-.048.631l-.574 2.599c1.802-2.4 4.604-4.167 6.28-4.167.714 0 1.263.378 1.356 1.136.051.421-.071 1.137-.35 1.937-.597 1.641-1.268 4.107-1.712 6.23-.095.45.062 1.132.887 1.132.658 0 2.774-.806 4.482-3.062-.011-.32-.016-.644-.016-.97 0-1.768.125-3.199.46-4.251.335-1.095 1.72-2.146 2.641-2.146.462 0 .797.252.797.757 0 .169-.042.38-.126.589-.629 1.852-.964 3.579-.964 5.305 0 .968.21 2.526.42 3.325.041.169.082.337.25.337.294 0 2.264-1.936 3.689-4.294-1.258-.8-1.97-2.273-1.97-4.084 0-3.03 1.803-4.588 3.563-4.588 1.384 0 2.641 1.01 2.641 3.03 0 1.264-.503 2.695-1.215 4.085 0 0 .293.042.418.042 1.09 0 1.928-.506 2.39-1.053.21-.237.404-.425.591-.532 1.404-1.696 3.46-2.92 5.874-2.92 2.054 0 3.828.8 4.033 2.484.263 2.146-1.57 2.568-2.2 2.568-.628 0-1.572-.169-1.638-.716-.067-.547 1.31-.252 1.15-1.557-.102-.843-.981-1.179-1.82-1.179-2.809 0-4.74 3.746-4.369 6.778.149 1.22.712 2.4 1.802 2.4.88 0 2.194-1.264 2.68-3.116.312-1.221 1.502-2.105 2.383-2.105.419 0 .78.21.842.716.031.253-.07.8-.54 2.778-.191.842-.23 1.558-.158 2.147.15 1.22.709 2.02 1.226 2.484.189.168.298.378.314.505.04.336-.216.631-.636.631-.126 0-.293 0-.43-.084-2.16-.884-3.054-2.357-3.308-3.746-.834 1.052-1.937 1.641-3.068 1.641-1.929 0-3.812-1.684-4.079-3.873-.11-.9-.001-1.865.293-2.815-.782.484-1.625.752-2.38.752-.252 0-.46 0-.712-.041-1.886 2.735-3.857 4.63-5.366 5.472-.628.337-1.214.505-1.634.505-.336 0-.713-.083-.88-.379-.384-.65-.644-1.687-.797-2.905zm6.832-8.966c0 1.18.586 2.4 1.34 3.2.295-.8.462-1.6.462-2.4 0-1.516-.587-2.19-1.048-2.19-.545 0-.754.758-.754 1.39z" fill="#FFF"></path></g></svg>