<?xml version="1.0" encoding="utf-8"?>
<!-- Generator: Adobe Illustrator 16.0.0, SVG Export Plug-In . SVG Version: 6.00 Build 0)  -->
<!DOCTYPE svg PUBLIC "-//W3C//DTD SVG 1.1//EN" "http://www.w3.org/Graphics/SVG/1.1/DTD/svg11.dtd">
<svg version="1.1" id="Layer_1" xmlns="http://www.w3.org/2000/svg" xmlns:xlink="http://www.w3.org/1999/xlink" x="0px" y="0px"
	 width="3000px" height="3000px" viewBox="0 0 3000 3000" enable-background="new 0 0 3000 3000" xml:space="preserve">
<g>
	<path d="M423.535,1193.8c-6.933,0-13.709,0.615-20.537,1.027l13.297,23.104c2.414,0,4.774-0.359,7.24-0.359
		c75.734-0.013,148.282,30.488,201.258,84.611l-21.614,37.427c-20.391-22.834-44.896-41.627-72.238-55.397
		c-28.226-14.033-58.957-22.323-90.411-24.387l14.632,25.26c20.57,2.934,40.61,8.813,59.505,17.457
		c29.381,13.662,55.367,33.668,76.088,58.579l-68.49,118.548l-44.563-77.013l0,0l-39.328-68.077l-77.628-134.207
		c-165.479,34.848-271.379,197.246-236.531,362.727c29.813,141.57,154.645,242.957,299.322,243.102c2.926,0,5.801-0.36,8.779-0.462
		l-13.605-23.513c-75.381-1.243-147.109-32.688-199.103-87.282l21.614-37.427c39.009,45.207,93.393,74.349,152.639,81.787
		l-15.403-26.697c-49.181-10.515-93.207-37.727-124.604-77.013l62.688-108.537l11.397,19.715l43.537,75.474l103.762,179.283
		c166.614-28.442,278.625-186.566,250.184-353.181C700.309,1301.247,572.764,1193.702,423.535,1193.8z M349.295,1227.788
		l21.204,37.018l13.605,23.514l-0.924-2.104l67.052,116.03H158.819C190.544,1316.834,261.432,1251.907,349.295,1227.788z
		 M238.757,1614.337l-13.298,23.104l-22.384,38.969c-56.674-70.168-76.002-163.371-51.906-250.289h196.277L238.757,1614.337z
		 M356.842,1549.493l-26.646-46.206l30.034-51.907l14.581-25.26h89.129l44.666,77.012l-30.291,52.472l-14.427,25.003h-89.077
		L356.842,1549.493z M487.044,1775.036l-21.718-37.633l-12.681-21.976l-64.126-110.896h297.318
		c-34.416,85.89-108.618,149.549-198.742,170.505H487.044z M650.618,1580.606H491.459l114.595-198.537l13.092-22.692l22.437-38.764
		c59.796,72.474,79.443,170.022,52.367,259.993H650.618z"/>
</g>
<path fill-rule="evenodd" clip-rule="evenodd" fill="#FFFFFF" d="M2750.896,1505.446c10.104-1.369,16.98-2.126,23.799-3.249
	c79.031-13.059,120.229-87.139,88.911-160.803c-21.458-50.468-62.366-71.175-115.06-71.662
	c-51.123-0.474-102.254-0.167-153.382-0.052c-4.368,0.011-8.737,1.153-12.572,1.691c0,127.06,0,252.707,0,377.793
	c9.499,0,17.388,0,26.884,0c0-7.383-0.004-13.658,0-19.932c0.003-36.023,0.435-72.055-0.226-108.061
	c-0.229-12.25,3.839-16.299,15.979-15.932c24.384,0.736,48.859-0.758,73.167,0.715c8.688,0.533,19.239,4.869,25.138,11.076
	c36.006,37.885,72.029,75.875,105.687,115.82c14.739,17.492,30.377,19.508,53.2,15.863
	C2838.129,1600.47,2795.577,1554.122,2750.896,1505.446z"/>
<path fill-rule="evenodd" clip-rule="evenodd" fill="#FFFFFF" d="M944.642,1518.265c8.204,0,13.926,0.004,19.645,0
	c41.254-0.033,82.531,0.811,123.751-0.336c45.022-1.258,80.279-20.55,102.402-61.071c40.122-73.488,3.005-188.089-108.806-187.265
	c-49.384,0.363-98.78,0.545-148.154-0.307c-14.53-0.249-18.671,4.122-18.605,18.592c0.508,115.62,0.223,231.242,0.275,346.865
	c0.003,4.936,0.921,9.873,1.353,14.188c10.223,0,18.594,0,28.14,0C944.642,1605.282,944.642,1563.017,944.642,1518.265z"/>
<path fill-rule="evenodd" clip-rule="evenodd" fill="#FFFFFF" d="M1813.856,1454.776c42.772-61.028,84.964-121.224,127.676-182.158
	c-27.182-5.086-27.807-4.908-41.101,13.725c-19.234,26.956-38.346,53.999-57.599,80.938c-15.087,21.113-30.305,42.127-46.41,64.492
	c-4.113-5.175-7.059-8.54-9.641-12.168c-31.345-43.998-63.476-87.473-93.498-132.353c-11.017-16.467-23.28-19.936-42.249-15.152
	c3.555,5.564,6.393,10.393,9.594,14.967c36.326,51.87,72.479,103.869,109.286,155.395c6.433,9.003,6.92,15.106,0.146,24.217
	c-24.611,33.095-48.328,66.85-72.34,100.389c-19.136,26.721-38.21,53.492-58.217,81.516c21.345,4.387,35.194,1.318,47.277-16.982
	c31.345-47.496,65.145-93.371,98.028-139.851c3.222-4.564,6.852-8.834,11.338-14.576c4.848,6.318,8.799,11.119,12.379,16.184
	c32.195,45.538,65.402,90.417,95.95,137.036c12.215,18.65,25.711,23.516,48.021,17.959
	C1905.784,1583.126,1859.939,1519.116,1813.856,1454.776z"/>
<path fill-rule="evenodd" clip-rule="evenodd" fill="#FFFFFF" d="M2145.982,1270.573c0,127.6,0,252.82,0,378.688
	c80.911,0,160.758,0,241.441,0c0-8.838,0-16.615,0-26.568c-71.441,0-141.942,0-214.541,0c0-118.598,0-235.034,0-352.119
	C2162.849,1270.573,2154.969,1270.573,2145.982,1270.573z"/>
<path fill-rule="evenodd" clip-rule="evenodd" fill="#FFFFFF" d="M1435.404,1649.507c0-127.447,0-252.784,0-379.822
	c-9.46,0.429-17.699,0.801-25.796,1.17c0,127.448,0,252.713,0,378.652C1418.796,1649.507,1426.651,1649.507,1435.404,1649.507z"/>
<path fill-rule="evenodd" clip-rule="evenodd" d="M2750.896,1505.446c44.681,48.676,87.232,95.023,131.524,143.27
	c-22.823,3.645-38.461,1.629-53.2-15.863c-33.657-39.945-69.681-77.936-105.687-115.82c-5.898-6.207-16.449-10.543-25.138-11.076
	c-24.308-1.473-48.783,0.021-73.167-0.715c-12.14-0.367-16.207,3.682-15.979,15.932c0.66,36.006,0.229,72.037,0.226,108.061
	c-0.004,6.273,0,12.549,0,19.932c-9.496,0-17.385,0-26.884,0c0-125.086,0-250.733,0-377.793c3.835-0.538,8.204-1.681,12.572-1.691
	c51.128-0.115,102.259-0.422,153.382,0.052c52.693,0.487,93.602,21.194,115.06,71.662c31.317,73.664-9.88,147.744-88.911,160.803
	C2767.877,1503.32,2761,1504.077,2750.896,1505.446z M2609.479,1387.777c0,25.547,0.174,51.096-0.099,76.641
	c-0.092,8.774,1.485,14.295,12.229,14.125c47.003-0.743,94.107,0.719,141.005-1.832c49.376-2.684,77.908-36.433,79.188-88.486
	c1.128-45.91-29.998-86.026-75.219-89.519c-48.485-3.748-97.393-2.381-146.108-2.199c-3.671,0.014-10.291,8.279-10.472,12.911
	C2608.982,1335.506,2609.51,1361.652,2609.479,1387.777z"/>
<path fill-rule="evenodd" clip-rule="evenodd" d="M944.642,1518.265c0,44.752,0,87.018,0,130.666c-9.546,0-17.917,0-28.14,0
	c-0.432-4.314-1.35-9.252-1.353-14.188c-0.053-115.623,0.232-231.245-0.275-346.865c-0.065-14.47,4.075-18.841,18.605-18.592
	c49.374,0.852,98.771,0.67,148.154,0.307c111.811-0.824,148.928,113.776,108.806,187.265
	c-22.123,40.521-57.38,59.813-102.402,61.071c-41.22,1.146-82.497,0.303-123.751,0.336
	C958.567,1518.269,952.846,1518.265,944.642,1518.265z M945.467,1298.308c0,64.097,0,127.732,0,192.044
	c53,0,105.27,3.049,157.001-0.928c44.386-3.409,75.325-46.778,75.16-94.861c-0.171-49.086-30.499-92.136-74.378-95.362
	C1051.464,1295.396,999.184,1298.308,945.467,1298.308z"/>
<path fill-rule="evenodd" clip-rule="evenodd" d="M1813.856,1454.776c46.083,64.34,91.928,128.35,138.642,193.576
	c-22.31,5.557-35.806,0.691-48.021-17.959c-30.548-46.619-63.755-91.498-95.95-137.036c-3.58-5.064-7.531-9.865-12.379-16.184
	c-4.486,5.742-8.116,10.012-11.338,14.576c-32.884,46.479-66.684,92.354-98.028,139.851c-12.083,18.301-25.933,21.369-47.277,16.982
	c20.007-28.023,39.081-54.795,58.217-81.516c24.012-33.539,47.729-67.294,72.34-100.389c6.773-9.11,6.286-15.214-0.146-24.217
	c-36.808-51.525-72.96-103.524-109.286-155.395c-3.201-4.574-6.039-9.402-9.594-14.967c18.969-4.783,31.232-1.314,42.249,15.152
	c30.022,44.88,62.153,88.354,93.498,132.353c2.582,3.628,5.527,6.993,9.641,12.168c16.105-22.365,31.323-43.379,46.41-64.492
	c19.253-26.939,38.364-53.982,57.599-80.938c13.294-18.633,13.919-18.811,41.101-13.725
	C1898.82,1333.553,1856.629,1393.748,1813.856,1454.776z"/>
<path fill-rule="evenodd" clip-rule="evenodd" d="M2145.982,1270.573c8.986,0,16.866,0,26.9,0c0,117.085,0,233.521,0,352.119
	c72.599,0,143.1,0,214.541,0c0,9.953,0,17.73,0,26.568c-80.684,0-160.53,0-241.441,0
	C2145.982,1523.394,2145.982,1398.173,2145.982,1270.573z"/>
<path fill-rule="evenodd" clip-rule="evenodd" d="M1435.404,1649.507c-8.753,0-16.608,0-25.796,0c0-125.939,0-251.204,0-378.652
	c8.097-0.369,16.336-0.741,25.796-1.17C1435.404,1396.723,1435.404,1522.06,1435.404,1649.507z"/>
</svg>
