<?xml version="1.0" standalone="no"?>
<!DOCTYPE svg PUBLIC "-//W3C//DTD SVG 20010904//EN"
 "http://www.w3.org/TR/2001/REC-SVG-20010904/DTD/svg10.dtd">
<svg version="1.0" xmlns="http://www.w3.org/2000/svg"
 width="200.000000pt" height="200.000000pt" viewBox="0 0 200.000000 200.000000"
 preserveAspectRatio="xMidYMid meet">
<metadata>
Created by potrace 1.16, written by Peter Selinger 2001-2019
</metadata>
<g transform="translate(0.000000,200.000000) scale(0.100000,-0.100000)"
fill="#000000" stroke="none">
<path d="M477 1533 c-2 -5 65 -285 149 -623 84 -338 153 -616 154 -618 0 -2 6
-2 13 0 16 4 927 877 927 888 0 4 -8 10 -17 13 -10 2 -287 82 -615 176 -328
94 -599 171 -602 171 -3 0 -7 -3 -9 -7z m166 -65 c62 -17 114 -33 117 -36 3
-2 -38 -44 -90 -93 -52 -48 -96 -86 -98 -84 -4 4 -61 225 -62 238 0 12 15 9
133 -25z m416 -124 c6 -5 -167 -173 -179 -174 -6 0 -61 215 -60 236 0 11 225
-47 239 -62z m-240 -59 c16 -66 28 -121 26 -124 -5 -4 -235 59 -245 66 -3 3
38 44 90 93 52 48 96 87 97 86 1 0 15 -55 32 -121z m425 10 c66 -19 121 -36
123 -38 1 -2 -40 -43 -92 -91 -60 -55 -97 -83 -100 -74 -8 25 -55 217 -55 227
0 14 -13 16 124 -24z m-123 -101 c16 -65 27 -119 25 -121 -1 -2 -32 5 -67 16
-35 11 -91 27 -124 36 l-60 17 95 89 c52 48 96 86 99 84 2 -2 16 -57 32 -121z
m424 15 c60 -17 113 -34 117 -38 4 -4 -33 -47 -82 -96 -49 -49 -92 -86 -95
-83 -3 3 -17 52 -31 109 -13 57 -27 112 -30 122 -7 22 -9 22 121 -14z m-121
-101 c14 -59 26 -111 26 -116 0 -5 -57 7 -127 27 l-126 36 94 87 c51 48 96 84
100 80 3 -4 18 -55 33 -114z m-712 57 c67 -19 123 -36 125 -39 4 -4 -178 -176
-187 -176 -3 0 -20 56 -36 125 -17 69 -29 125 -27 125 2 0 59 -16 125 -35z
m303 -86 c60 -17 113 -34 117 -38 5 -4 -34 -46 -86 -94 l-94 -86 -26 107 c-15
59 -29 115 -32 125 -7 22 -9 22 121 -14z m-122 -100 c16 -66 27 -123 24 -125
-5 -5 -92 18 -201 53 l-49 16 94 88 c52 48 96 88 99 88 3 1 18 -53 33 -120z
m434 9 c62 -17 113 -34 113 -37 0 -10 -179 -186 -183 -180 -12 14 -63 249 -54
249 6 0 61 -14 124 -32z m-130 -103 c26 -108 28 -125 14 -121 -9 3 -67 20
-130 38 l-115 32 95 88 c51 48 96 88 99 88 3 0 20 -56 37 -125z m-418 -25 c58
-17 112 -33 120 -36 17 -5 -9 -35 -110 -125 l-67 -59 -26 108 c-15 59 -29 115
-32 125 -7 22 -11 22 115 -13z m190 -185 c16 -66 28 -121 26 -123 -4 -4 -224
57 -239 66 -5 2 34 44 85 92 52 48 95 87 96 86 1 0 15 -55 32 -121z m126 93
c61 -17 112 -33 114 -35 3 -2 -35 -44 -84 -93 -49 -49 -91 -88 -93 -85 -4 4
-61 224 -62 238 0 11 6 10 125 -25z m-225 -214 c52 -14 101 -29 107 -33 8 -4
-20 -39 -82 -101 -64 -64 -96 -89 -99 -79 -8 21 -56 229 -56 241 0 5 8 7 18 4
9 -3 60 -17 112 -32z"/>
</g>
</svg>
