<svg width="789.55" height="90.8" viewBox="0 0 1000 100" xmlns="http://www.w3.org/2000/svg">

<g id="atc" stroke-linecap="round" fill-rule="evenodd" font-size="9pt" stroke="blue" stroke-width="3px" fill="none">
<path d="M 648.3 73.65 L 639.4 73.65 L 639.4 0 L 648.3 0 L 648.3 29.8 A 27.621 27.621 0 0 1 654.523 24.815 A 25.85 25.85 0 0 1 655.5 24.275 A 17.995 17.995 0 0 1 661.498 22.403 A 23.039 23.039 0 0 1 664.6 22.2 A 21.377 21.377 0 0 1 668.276 22.502 A 16.123 16.123 0 0 1 671.925 23.575 Q 675.1 24.95 677.225 27.475 A 16.359 16.359 0 0 1 679.75 31.634 A 20.015 20.015 0 0 1 680.45 33.55 A 24.352 24.352 0 0 1 681.395 38.28 A 30.551 30.551 0 0 1 681.55 41.4 L 681.55 73.65 L 672.65 73.65 L 672.65 41.4 A 20.251 20.251 0 0 0 672.368 37.909 Q 672.043 36.053 671.342 34.566 A 9.856 9.856 0 0 0 670.025 32.475 Q 667.592 29.533 662.776 29.317 A 17.364 17.364 0 0 0 662 29.3 Q 658.05 29.3 654.625 31.2 A 23.313 23.313 0 0 0 649.783 34.809 A 27.836 27.836 0 0 0 648.3 36.35 L 648.3 73.65 Z M 624.25 59.5 L 628.05 63.65 Q 623.65 68.75 617.375 71.6 Q 611.1 74.45 602.25 74.45 A 38.879 38.879 0 0 1 593.99 73.604 A 32.306 32.306 0 0 1 588.2 71.775 Q 581.9 69.1 577.45 64.275 A 32.996 32.996 0 0 1 571.539 55.164 A 38.961 38.961 0 0 1 570.55 52.7 Q 568.1 45.95 568.1 37.85 A 43.558 43.558 0 0 1 569.075 28.479 A 37.02 37.02 0 0 1 570.725 23 A 34.584 34.584 0 0 1 576.258 13.449 A 32.283 32.283 0 0 1 578.1 11.4 Q 582.85 6.55 589.475 3.875 Q 596.1 1.2 604.1 1.2 A 42.775 42.775 0 0 1 610.487 1.652 Q 614.46 2.253 617.725 3.65 Q 623.45 6.1 627.9 10.3 L 624.75 14.75 A 3.598 3.598 0 0 1 624.228 15.349 A 3.15 3.15 0 0 1 623.95 15.575 Q 623.617 15.815 623.066 15.878 A 3.691 3.691 0 0 1 622.65 15.9 A 2.042 2.042 0 0 1 621.981 15.781 Q 621.723 15.692 621.455 15.536 A 3.934 3.934 0 0 1 621.275 15.425 Q 620.55 14.95 619.55 14.25 Q 618.691 13.648 617.573 12.973 A 50.819 50.819 0 0 0 617.2 12.75 A 17.192 17.192 0 0 0 615.775 11.998 Q 614.954 11.611 614 11.25 A 22.051 22.051 0 0 0 612.067 10.625 Q 610.963 10.32 609.7 10.075 A 24.504 24.504 0 0 0 607.238 9.734 Q 605.959 9.619 604.524 9.603 A 41.999 41.999 0 0 0 604.05 9.6 A 29.118 29.118 0 0 0 597.324 10.352 A 24.978 24.978 0 0 0 593.525 11.575 Q 588.75 13.55 585.3 17.2 A 24.541 24.541 0 0 0 580.983 23.575 A 29.624 29.624 0 0 0 579.925 26.1 A 31.179 31.179 0 0 0 578.271 33.151 A 39.536 39.536 0 0 0 578 37.85 A 39.856 39.856 0 0 0 578.48 44.182 A 30.242 30.242 0 0 0 579.925 49.8 A 28.874 28.874 0 0 0 582.534 55.192 A 23.846 23.846 0 0 0 585.175 58.675 Q 588.5 62.3 593.05 64.2 A 25 25 0 0 0 602.196 66.093 A 28.658 28.658 0 0 0 602.85 66.1 Q 606.05 66.1 608.6 65.725 A 24.847 24.847 0 0 0 611.911 65.014 A 21.243 21.243 0 0 0 613.325 64.55 Q 615.5 63.75 617.375 62.525 A 29.443 29.443 0 0 0 619.729 60.808 A 35.793 35.793 0 0 0 621.15 59.6 A 3.899 3.899 0 0 1 621.676 59.204 Q 622.25 58.85 622.8 58.85 A 1.901 1.901 0 0 1 623.958 59.247 A 2.648 2.648 0 0 1 624.25 59.5 Z M 83.7 73.65 L 74.8 73.65 L 74.8 23 L 80.1 23 A 2.924 2.924 0 0 1 81.058 23.146 Q 81.921 23.444 82.324 24.349 A 3.42 3.42 0 0 1 82.5 24.85 L 83.2 30.35 Q 86.5 26.7 90.575 24.45 Q 94.65 22.2 100 22.2 A 21.377 21.377 0 0 1 103.676 22.502 A 16.123 16.123 0 0 1 107.325 23.575 Q 110.5 24.95 112.625 27.475 A 16.359 16.359 0 0 1 115.15 31.634 A 20.015 20.015 0 0 1 115.85 33.55 A 24.352 24.352 0 0 1 116.795 38.28 A 30.551 30.551 0 0 1 116.95 41.4 L 116.95 73.65 L 108.05 73.65 L 108.05 41.4 A 20.251 20.251 0 0 0 107.768 37.909 Q 107.443 36.053 106.742 34.566 A 9.856 9.856 0 0 0 105.425 32.475 Q 102.992 29.533 98.176 29.317 A 17.364 17.364 0 0 0 97.4 29.3 Q 93.45 29.3 90.025 31.2 A 23.313 23.313 0 0 0 85.183 34.809 A 27.836 27.836 0 0 0 83.7 36.35 L 83.7 73.65 Z M 139.3 73.65 L 130.4 73.65 L 130.4 23 L 135.7 23 A 2.924 2.924 0 0 1 136.658 23.146 Q 137.521 23.444 137.924 24.349 A 3.42 3.42 0 0 1 138.1 24.85 L 138.8 30.35 Q 142.1 26.7 146.175 24.45 Q 150.25 22.2 155.6 22.2 A 21.377 21.377 0 0 1 159.276 22.502 A 16.123 16.123 0 0 1 162.925 23.575 Q 166.1 24.95 168.225 27.475 A 16.359 16.359 0 0 1 170.75 31.634 A 20.015 20.015 0 0 1 171.45 33.55 A 24.352 24.352 0 0 1 172.395 38.28 A 30.551 30.551 0 0 1 172.55 41.4 L 172.55 73.65 L 163.65 73.65 L 163.65 41.4 A 20.251 20.251 0 0 0 163.368 37.909 Q 163.043 36.053 162.342 34.566 A 9.856 9.856 0 0 0 161.025 32.475 Q 158.592 29.533 153.776 29.317 A 17.364 17.364 0 0 0 153 29.3 Q 149.05 29.3 145.625 31.2 A 23.313 23.313 0 0 0 140.783 34.809 A 27.836 27.836 0 0 0 139.3 36.35 L 139.3 73.65 Z M 756.3 73.65 L 747.4 73.65 L 747.4 23 L 752.7 23 A 2.924 2.924 0 0 1 753.658 23.146 Q 754.521 23.444 754.924 24.349 A 3.42 3.42 0 0 1 755.1 24.85 L 755.8 30.35 Q 759.1 26.7 763.175 24.45 Q 767.25 22.2 772.6 22.2 A 21.377 21.377 0 0 1 776.276 22.502 A 16.123 16.123 0 0 1 779.925 23.575 Q 783.1 24.95 785.225 27.475 A 16.359 16.359 0 0 1 787.75 31.634 A 20.015 20.015 0 0 1 788.45 33.55 A 24.352 24.352 0 0 1 789.395 38.28 A 30.551 30.551 0 0 1 789.55 41.4 L 789.55 73.65 L 780.65 73.65 L 780.65 41.4 A 20.251 20.251 0 0 0 780.368 37.909 Q 780.043 36.053 779.342 34.566 A 9.856 9.856 0 0 0 778.025 32.475 Q 775.592 29.533 770.776 29.317 A 17.364 17.364 0 0 0 770 29.3 Q 766.05 29.3 762.625 31.2 A 23.313 23.313 0 0 0 757.783 34.809 A 27.836 27.836 0 0 0 756.3 36.35 L 756.3 73.65 Z M 38.5 2 L 67.15 73.65 L 59.65 73.65 A 4.234 4.234 0 0 1 58.754 73.56 Q 58.053 73.409 57.55 73 Q 56.75 72.35 56.35 71.35 L 49.65 54.05 L 17.5 54.05 L 10.8 71.35 A 3.687 3.687 0 0 1 10.039 72.54 A 4.673 4.673 0 0 1 9.6 72.95 A 3.044 3.044 0 0 1 8.028 73.617 A 4.039 4.039 0 0 1 7.5 73.65 L 0 73.65 L 28.65 2 L 38.5 2 Z M 422 23 L 393.75 88.6 A 5.507 5.507 0 0 1 393.281 89.446 A 4.073 4.073 0 0 1 392.625 90.2 Q 392.127 90.643 391.234 90.759 A 5.319 5.319 0 0 1 390.55 90.8 L 383.95 90.8 L 393.2 70.7 L 372.3 23 L 380 23 A 3.704 3.704 0 0 1 380.724 23.066 Q 381.148 23.151 381.479 23.344 A 2.006 2.006 0 0 1 381.8 23.575 A 3.982 3.982 0 0 1 382.392 24.221 A 3.265 3.265 0 0 1 382.75 24.85 L 396.3 56.75 Q 396.75 57.85 397.075 58.95 Q 397.4 60.05 397.65 61.2 Q 398 60.05 398.35 58.95 A 36.341 36.341 0 0 1 399.039 56.987 A 40.211 40.211 0 0 1 399.15 56.7 L 412.3 24.85 Q 412.6 24.05 413.325 23.525 A 2.722 2.722 0 0 1 414.305 23.068 A 2.598 2.598 0 0 1 414.9 23 L 422 23 Z M 277.4 2 L 333.5 2 L 333.5 10.15 L 310.35 10.15 L 310.35 73.65 L 300.65 73.65 L 300.65 10.15 L 277.4 10.15 L 277.4 2 Z M 250.5 48.35 L 216.8 48.35 A 34.613 34.613 0 0 0 217.098 52.311 Q 217.425 54.703 218.1 56.7 A 19.531 19.531 0 0 0 219.525 59.956 A 15.109 15.109 0 0 0 221.4 62.625 Q 223.5 65 226.4 66.175 A 15.964 15.964 0 0 0 230.508 67.211 A 20.035 20.035 0 0 0 232.9 67.35 A 24.444 24.444 0 0 0 235.469 67.222 Q 237.235 67.035 238.675 66.575 Q 241.1 65.8 242.85 64.9 Q 244.6 64 245.775 63.225 A 6.838 6.838 0 0 1 246.41 62.85 Q 247.132 62.479 247.71 62.452 A 1.923 1.923 0 0 1 247.8 62.45 A 2.267 2.267 0 0 1 248.569 62.575 A 1.916 1.916 0 0 1 249.5 63.3 L 252 66.55 Q 250.35 68.55 248.05 70.025 Q 245.75 71.5 243.125 72.45 Q 240.5 73.4 237.7 73.875 Q 234.9 74.35 232.15 74.35 A 27.133 27.133 0 0 1 225.619 73.587 A 23.728 23.728 0 0 1 222.475 72.575 Q 218.05 70.8 214.825 67.375 A 22.412 22.412 0 0 1 211.064 61.898 A 27.886 27.886 0 0 1 209.8 58.9 A 30.084 30.084 0 0 1 208.37 52.928 A 40.914 40.914 0 0 1 208 47.3 A 30.581 30.581 0 0 1 208.839 40.043 A 27.364 27.364 0 0 1 209.625 37.4 A 23.911 23.911 0 0 1 212.949 31.074 A 22.042 22.042 0 0 1 214.3 29.425 A 21.486 21.486 0 0 1 221.613 24.186 A 24.597 24.597 0 0 1 221.75 24.125 A 22.922 22.922 0 0 1 228.32 22.388 A 28.728 28.728 0 0 1 231.65 22.2 A 23.789 23.789 0 0 1 237.32 22.857 A 20.87 20.87 0 0 1 240.05 23.725 Q 243.9 25.25 246.7 28.125 Q 249.5 31 251.075 35.225 A 24.476 24.476 0 0 1 252.37 40.503 A 32.382 32.382 0 0 1 252.65 44.85 Q 252.65 46.894 252.224 47.612 A 1.276 1.276 0 0 1 252.2 47.65 Q 251.75 48.35 250.5 48.35 Z M 733.9 48.35 L 700.2 48.35 A 34.613 34.613 0 0 0 700.498 52.311 Q 700.825 54.703 701.5 56.7 A 19.531 19.531 0 0 0 702.925 59.956 A 15.109 15.109 0 0 0 704.8 62.625 Q 706.9 65 709.8 66.175 A 15.964 15.964 0 0 0 713.908 67.211 A 20.035 20.035 0 0 0 716.3 67.35 A 24.444 24.444 0 0 0 718.869 67.222 Q 720.635 67.035 722.075 66.575 Q 724.5 65.8 726.25 64.9 Q 728 64 729.175 63.225 A 6.838 6.838 0 0 1 729.81 62.85 Q 730.532 62.479 731.11 62.452 A 1.923 1.923 0 0 1 731.2 62.45 A 2.267 2.267 0 0 1 731.969 62.575 A 1.916 1.916 0 0 1 732.9 63.3 L 735.4 66.55 Q 733.75 68.55 731.45 70.025 Q 729.15 71.5 726.525 72.45 Q 723.9 73.4 721.1 73.875 Q 718.3 74.35 715.55 74.35 A 27.133 27.133 0 0 1 709.019 73.587 A 23.728 23.728 0 0 1 705.875 72.575 Q 701.45 70.8 698.225 67.375 A 22.412 22.412 0 0 1 694.464 61.898 A 27.886 27.886 0 0 1 693.2 58.9 A 30.084 30.084 0 0 1 691.77 52.928 A 40.914 40.914 0 0 1 691.4 47.3 A 30.581 30.581 0 0 1 692.239 40.043 A 27.364 27.364 0 0 1 693.025 37.4 A 23.911 23.911 0 0 1 696.349 31.074 A 22.042 22.042 0 0 1 697.7 29.425 A 21.486 21.486 0 0 1 705.013 24.186 A 24.597 24.597 0 0 1 705.15 24.125 A 22.922 22.922 0 0 1 711.72 22.388 A 28.728 28.728 0 0 1 715.05 22.2 A 23.789 23.789 0 0 1 720.72 22.857 A 20.87 20.87 0 0 1 723.45 23.725 Q 727.3 25.25 730.1 28.125 Q 732.9 31 734.475 35.225 A 24.476 24.476 0 0 1 735.77 40.503 A 32.382 32.382 0 0 1 736.05 44.85 Q 736.05 46.894 735.624 47.612 A 1.276 1.276 0 0 1 735.6 47.65 Q 735.15 48.35 733.9 48.35 Z M 367 41.25 L 367 73.65 L 363.05 73.65 Q 362.123 73.65 361.451 73.447 A 3.165 3.165 0 0 1 360.95 73.25 Q 360.15 72.85 359.9 71.55 L 358.9 66.85 A 60.946 60.946 0 0 1 356.439 68.954 A 50.506 50.506 0 0 1 355 70.075 Q 353.1 71.5 351 72.475 Q 348.9 73.45 346.525 73.95 A 22.817 22.817 0 0 1 343.697 74.353 A 29.853 29.853 0 0 1 341.25 74.45 A 18.691 18.691 0 0 1 337.203 74.024 A 16.577 16.577 0 0 1 335.725 73.625 A 12.942 12.942 0 0 1 332.244 71.925 A 11.89 11.89 0 0 1 331.25 71.15 Q 329.35 69.5 328.225 66.975 A 12.493 12.493 0 0 1 327.347 64.031 Q 327.1 62.617 327.1 61 A 11 11 0 0 1 328.455 55.747 A 13.226 13.226 0 0 1 328.75 55.225 Q 330.217 52.758 333.284 50.785 A 21.949 21.949 0 0 1 334.075 50.3 A 24.912 24.912 0 0 1 337.365 48.71 Q 339.087 48.017 341.131 47.435 A 52.477 52.477 0 0 1 343.7 46.775 Q 348.255 45.722 354.364 45.358 A 107.359 107.359 0 0 1 358.25 45.2 L 358.25 41.25 Q 358.25 37.433 357.193 34.82 A 9.297 9.297 0 0 0 355.725 32.325 A 8.103 8.103 0 0 0 351.302 29.641 Q 349.913 29.3 348.25 29.3 A 21.405 21.405 0 0 0 345.957 29.416 Q 344.781 29.543 343.778 29.809 A 10.953 10.953 0 0 0 342.775 30.125 Q 340.55 30.95 338.925 31.975 A 89.898 89.898 0 0 0 337.77 32.716 Q 337.201 33.087 336.701 33.427 A 48.773 48.773 0 0 0 336.125 33.825 A 5.141 5.141 0 0 1 335.211 34.344 Q 334.501 34.65 333.8 34.65 Q 332.9 34.65 332.225 34.175 Q 331.55 33.7 331.15 33 L 329.55 30.15 A 30.807 30.807 0 0 1 335.054 25.888 A 26.451 26.451 0 0 1 338.6 24.1 A 26.557 26.557 0 0 1 346.114 22.258 A 32.393 32.393 0 0 1 349.35 22.1 A 21.995 21.995 0 0 1 353.362 22.45 A 16.935 16.935 0 0 1 356.9 23.5 A 15.801 15.801 0 0 1 361.415 26.359 A 14.817 14.817 0 0 1 362.45 27.4 A 15.926 15.926 0 0 1 365.289 31.934 A 19.217 19.217 0 0 1 365.85 33.45 A 23.623 23.623 0 0 1 366.876 38.536 A 29.036 29.036 0 0 1 367 41.25 Z M 520.2 73.65 L 511.3 73.65 L 511.3 23 L 516.4 23 Q 517.589 23 518.172 23.37 A 1.314 1.314 0 0 1 518.4 23.55 A 1.909 1.909 0 0 1 518.737 24.023 Q 518.98 24.49 519.111 25.214 A 7.468 7.468 0 0 1 519.15 25.45 L 519.75 33.35 A 27.656 27.656 0 0 1 522.358 29.024 A 20.285 20.285 0 0 1 526.175 25.075 A 14.114 14.114 0 0 1 534.75 22.105 A 17.566 17.566 0 0 1 535.15 22.1 A 16.132 16.132 0 0 1 537.15 22.219 A 12.399 12.399 0 0 1 538.95 22.575 Q 540.65 23.05 542.1 23.9 L 540.95 30.55 Q 540.622 31.721 539.548 31.795 A 2.157 2.157 0 0 1 539.4 31.8 A 3.13 3.13 0 0 1 538.961 31.764 Q 538.304 31.67 537.25 31.325 Q 535.929 30.892 533.655 30.854 A 26.813 26.813 0 0 0 533.2 30.85 Q 528.55 30.85 525.425 33.55 A 15.981 15.981 0 0 0 522.731 36.605 Q 521.695 38.11 520.815 39.99 A 30.721 30.721 0 0 0 520.2 41.4 L 520.2 73.65 Z M 431.1 0 L 440 0 L 440 73.65 L 431.1 73.65 L 431.1 0 Z M 481.949 22.753 A 28.736 28.736 0 0 0 476.2 22.2 Q 470.65 22.2 466.175 24.05 Q 461.7 25.9 458.55 29.3 A 21.547 21.547 0 0 0 456.391 32.05 A 24.766 24.766 0 0 0 453.7 37.525 A 28.699 28.699 0 0 0 452.48 42.296 A 36.071 36.071 0 0 0 452 48.3 A 37.623 37.623 0 0 0 452.281 52.977 A 29.147 29.147 0 0 0 453.7 59.1 A 27.031 27.031 0 0 0 454.396 60.869 A 22.715 22.715 0 0 0 458.55 67.3 Q 461.7 70.7 466.175 72.525 A 23.64 23.64 0 0 0 470.451 73.804 A 29.116 29.116 0 0 0 476.2 74.35 A 30.801 30.801 0 0 0 479.726 74.154 A 24.575 24.575 0 0 0 486.225 72.525 Q 490.7 70.7 493.825 67.3 A 21.518 21.518 0 0 0 495.884 64.675 A 24.595 24.595 0 0 0 498.625 59.1 A 28.736 28.736 0 0 0 499.841 54.252 A 36.947 36.947 0 0 0 500.3 48.3 A 38.124 38.124 0 0 0 500.064 43.996 A 30.007 30.007 0 0 0 498.625 37.525 Q 496.95 32.7 493.825 29.3 Q 490.7 25.9 486.225 24.05 A 23.401 23.401 0 0 0 481.949 22.753 Z M 187 23 L 195.9 23 L 195.9 73.65 L 187 73.65 L 187 23 Z M 476.2 67.4 A 17.69 17.69 0 0 0 480.701 66.862 A 11.771 11.771 0 0 0 487.4 62.375 Q 491.1 57.35 491.1 48.35 A 35.976 35.976 0 0 0 490.739 43.084 Q 489.944 37.722 487.4 34.25 Q 483.7 29.2 476.2 29.2 A 18.791 18.791 0 0 0 473.066 29.449 Q 471.205 29.764 469.649 30.477 A 11.917 11.917 0 0 0 469.6 30.5 Q 466.8 31.8 464.925 34.25 A 14.928 14.928 0 0 0 463.033 37.556 A 19.815 19.815 0 0 0 462.125 40.275 A 28.098 28.098 0 0 0 461.403 44.334 A 37.906 37.906 0 0 0 461.2 48.35 A 37.564 37.564 0 0 0 461.417 52.486 A 27.577 27.577 0 0 0 462.125 56.4 Q 463.05 59.95 464.925 62.375 Q 466.8 64.8 469.6 66.1 A 13.551 13.551 0 0 0 473.04 67.147 A 18.764 18.764 0 0 0 476.2 67.4 Z M 31.45 17.95 L 20.2 47.05 L 46.95 47.05 L 35.7 17.9 Q 34.944 16.044 34.211 13.549 A 77.913 77.913 0 0 1 33.55 11.15 A 133.604 133.604 0 0 1 33.006 13.119 A 104.645 104.645 0 0 1 32.475 14.925 Q 32.024 16.407 31.591 17.576 A 31.904 31.904 0 0 1 31.45 17.95 Z M 217.1 42.8 L 244.65 42.8 Q 244.65 39.7 243.8 37.125 Q 242.95 34.55 241.3 32.675 Q 239.65 30.8 237.275 29.775 A 12.363 12.363 0 0 0 234.054 28.896 A 16.091 16.091 0 0 0 231.85 28.75 A 18.003 18.003 0 0 0 227.612 29.221 A 12.178 12.178 0 0 0 221.7 32.475 A 15.05 15.05 0 0 0 218.374 37.701 Q 217.483 39.99 217.1 42.8 Z M 700.5 42.8 L 728.05 42.8 Q 728.05 39.7 727.2 37.125 Q 726.35 34.55 724.7 32.675 Q 723.05 30.8 720.675 29.775 A 12.363 12.363 0 0 0 717.454 28.896 A 16.091 16.091 0 0 0 715.25 28.75 A 18.003 18.003 0 0 0 711.012 29.221 A 12.178 12.178 0 0 0 705.1 32.475 A 15.05 15.05 0 0 0 701.774 37.701 Q 700.883 39.99 700.5 42.8 Z M 358.25 61.4 L 358.25 50.85 Q 352.1 51.05 347.8 51.825 A 42.076 42.076 0 0 0 344.916 52.443 Q 343.574 52.784 342.439 53.187 A 19.122 19.122 0 0 0 340.8 53.85 Q 338.834 54.76 337.65 55.909 A 6.71 6.71 0 0 0 336.875 56.8 Q 335.65 58.5 335.65 60.6 A 10.329 10.329 0 0 0 335.772 62.231 Q 335.932 63.229 336.3 64.05 A 6.995 6.995 0 0 0 337.231 65.587 A 6.058 6.058 0 0 0 338.05 66.425 A 6.777 6.777 0 0 0 340.236 67.646 A 7.974 7.974 0 0 0 340.65 67.775 A 11.252 11.252 0 0 0 342.831 68.158 A 13.502 13.502 0 0 0 343.9 68.2 A 20.226 20.226 0 0 0 346.384 68.054 A 15.952 15.952 0 0 0 348.2 67.725 Q 350.15 67.25 351.875 66.375 Q 353.6 65.5 355.175 64.25 A 27.67 27.67 0 0 0 357.495 62.178 A 31.598 31.598 0 0 0 358.25 61.4 Z M 197.9 7.1 Q 197.9 8.4 197.375 9.525 Q 196.85 10.65 195.975 11.525 Q 195.1 12.4 193.95 12.9 Q 192.8 13.4 191.5 13.4 A 5.941 5.941 0 0 1 189.287 12.989 A 5.717 5.717 0 0 1 189.075 12.9 Q 187.95 12.4 187.075 11.525 Q 186.2 10.65 185.7 9.525 A 5.884 5.884 0 0 1 185.2 7.181 A 6.716 6.716 0 0 1 185.2 7.1 Q 185.2 5.8 185.7 4.625 Q 186.2 3.45 187.075 2.575 Q 187.95 1.7 189.075 1.2 A 5.884 5.884 0 0 1 191.419 0.7 A 6.716 6.716 0 0 1 191.5 0.7 Q 192.8 0.7 193.95 1.2 Q 195.1 1.7 195.975 2.575 Q 196.85 3.45 197.375 4.625 Q 197.9 5.8 197.9 7.1 Z" vector-effect="non-scaling-stroke"/>
    <animate attributeName="stroke" values="transparent;blue;transparent"
        dur="5s" repeatCount="indefinite"/>
    </g>
</svg>
